<?xml version="1.0" standalone="no"?>
<!DOCTYPE svg PUBLIC "-//W3C//DTD SVG 20010904//EN"
 "http://www.w3.org/TR/2001/REC-SVG-20010904/DTD/svg10.dtd">
<svg version="1.0" xmlns="http://www.w3.org/2000/svg"
 width="980.000000pt" height="812.000000pt" viewBox="0 0 980.000000 812.000000"
 preserveAspectRatio="xMidYMid meet">

<g transform="translate(0.000000,812.000000) scale(0.100000,-0.100000)"
fill="#000000" stroke="none">
<path d="M4520 8111 c-200 -12 -319 -58 -425 -165 -86 -86 -148 -186 -283
-453 l-117 -233 -625 0 c-887 0 -989 -9 -1189 -106 -121 -57 -200 -114 -300
-214 -138 -138 -242 -319 -277 -479 -25 -116 -34 -490 -34 -1439 l0 -923 -154
-74 c-537 -257 -868 -531 -1039 -862 -70 -136 -77 -173 -77 -415 l0 -208 56
-113 c31 -61 81 -150 112 -197 69 -105 243 -281 373 -378 447 -332 1141 -597
2034 -777 479 -96 1168 -181 1628 -201 87 -4 160 -11 163 -15 3 -5 -107 -126
-245 -269 -138 -143 -258 -275 -268 -292 -10 -20 -17 -54 -16 -84 1 -136 118
-234 243 -204 66 16 166 106 643 580 l387 385 0 85 0 86 -452 450 c-249 248
-477 470 -506 493 -48 37 -60 41 -108 41 -79 0 -147 -39 -180 -103 -23 -43
-34 -120 -24 -159 15 -52 42 -84 292 -341 l231 -239 -79 6 c-43 4 -173 13
-289 22 -933 68 -1822 248 -2465 501 -171 67 -500 232 -620 310 -262 172 -419
348 -476 532 -22 70 -19 187 5 256 80 227 349 468 738 664 86 43 93 41 93 -16
0 -125 63 -325 147 -470 132 -228 329 -385 599 -479 l125 -44 2752 0 2752 0
95 31 c211 69 340 149 481 297 171 180 279 408 295 622 3 41 7 81 10 88 7 25
318 -149 474 -266 156 -116 298 -281 343 -396 25 -65 34 -215 18 -284 -30
-123 -175 -304 -354 -443 -319 -248 -855 -477 -1478 -634 -348 -88 -628 -140
-1099 -205 -329 -46 -361 -55 -413 -127 -39 -54 -48 -132 -23 -198 18 -46 79
-109 122 -126 31 -11 176 1 449 37 1203 158 2196 500 2750 947 93 75 233 218
293 299 208 282 248 640 107 946 -147 316 -524 626 -1076 883 l-116 54 -7
1070 c-4 589 -11 1125 -16 1191 -10 135 -31 203 -101 334 -128 238 -366 438
-623 524 -88 30 -244 37 -965 44 l-714 7 -118 229 c-149 287 -197 365 -279
446 -48 49 -90 79 -165 117 l-100 51 -395 5 c-217 3 -451 2 -520 -2z m850
-452 c42 -19 80 -80 235 -379 59 -113 132 -249 163 -303 50 -86 60 -98 92
-106 63 -16 204 -21 915 -31 385 -6 740 -15 789 -21 108 -12 184 -46 279 -125
89 -72 160 -163 207 -262 l40 -82 0 -1441 0 -1441 -52 -100 c-76 -148 -160
-234 -319 -324 l-61 -34 -2761 0 -2762 0 -85 48 c-128 71 -231 178 -299 310
l-53 104 5 1406 c3 892 9 1429 16 1466 17 102 72 197 170 295 97 97 171 142
276 166 110 26 345 34 955 35 316 0 629 5 695 10 115 9 121 10 146 39 37 40
88 129 222 387 180 345 203 379 259 388 18 3 44 8 58 10 14 2 207 3 430 2 346
-1 410 -4 440 -17z"/>
<path d="M4664 6389 c-91 -11 -290 -76 -421 -138 -149 -72 -272 -160 -398
-286 -281 -280 -438 -653 -438 -1045 -1 -420 141 -760 442 -1060 235 -234 511
-380 795 -419 100 -14 386 -14 501 0 270 33 568 190 801 423 234 234 373 503
420 811 20 126 13 444 -10 548 -40 175 -126 369 -233 532 -80 120 -256 301
-359 368 -159 104 -365 199 -517 236 -139 35 -417 50 -583 30z m421 -434 c206
-33 381 -124 547 -283 140 -135 241 -301 290 -479 19 -68 22 -105 22 -288 l1
-210 -32 -92 c-62 -176 -137 -304 -251 -425 -133 -141 -307 -245 -497 -295
-90 -24 -117 -27 -270 -26 -150 0 -181 3 -266 25 -191 51 -344 140 -485 282
-106 107 -166 195 -223 329 -74 174 -84 235 -78 437 8 252 46 386 161 558 154
232 445 430 694 472 80 13 292 11 387 -5z"/>
</g>
</svg>
