<?xml version="1.0" standalone="no"?>
<!DOCTYPE svg PUBLIC "-//W3C//DTD SVG 20010904//EN"
 "http://www.w3.org/TR/2001/REC-SVG-20010904/DTD/svg10.dtd">
<svg version="1.0" xmlns="http://www.w3.org/2000/svg"
 width="980.000000pt" height="852.000000pt" viewBox="0 0 980.000000 852.000000"
 preserveAspectRatio="xMidYMid meet">

<g transform="translate(0.000000,852.000000) scale(0.100000,-0.100000)"
fill="#000000" stroke="none">
<path d="M4235 8510 c-256 -4 -305 -7 -326 -21 -31 -21 -161 -140 -296 -272
l-101 -100 -244 8 c-133 4 -245 9 -247 11 -2 2 -7 44 -12 94 -5 49 -15 103
-23 119 -14 27 -21 30 -88 36 -40 4 -174 5 -298 3 -194 -3 -230 -6 -258 -21
-45 -25 -62 -69 -62 -167 l0 -80 -127 0 c-216 0 -286 -22 -346 -106 l-28 -41
-10 -289 c-13 -379 -13 -3288 0 -3649 7 -208 14 -291 25 -324 35 -97 157 -230
257 -281 20 -11 63 -24 96 -30 153 -28 4836 -36 5338 -9 191 10 288 23 343 46
81 34 220 206 241 300 25 107 33 680 28 1998 -5 1327 -9 1468 -42 1627 -47
226 -283 520 -516 643 -179 94 -264 106 -794 114 l-421 6 -115 130 c-131 147
-214 222 -261 236 -84 25 -891 34 -1713 19z m-1459 -1015 c98 -61 150 -185
120 -288 -21 -74 -65 -130 -122 -157 -91 -45 -182 -37 -270 23 -152 101 -138
346 24 432 40 21 58 25 123 23 64 -3 83 -8 125 -33z m2532 -110 c186 -41 447
-160 592 -268 159 -118 335 -301 438 -453 88 -132 197 -381 228 -524 20 -91
29 -462 15 -633 -9 -113 -17 -158 -46 -245 -41 -123 -114 -280 -181 -391 -238
-392 -653 -675 -1129 -768 -130 -25 -452 -25 -590 1 -232 43 -504 158 -670
282 -116 88 -312 284 -398 399 -149 200 -251 457 -293 745 -22 151 -15 400 16
545 96 454 346 824 722 1069 104 68 323 175 430 210 148 50 209 56 513 52 213
-3 298 -8 353 -21z"/>
<path d="M4673 6979 c-315 -52 -690 -346 -852 -667 -98 -194 -145 -455 -122
-668 59 -527 434 -958 941 -1082 345 -85 677 -27 967 170 98 65 250 213 328
317 358 477 301 1156 -135 1591 -196 196 -418 309 -670 340 -100 12 -382 11
-457 -1z m357 -590 c359 -45 601 -392 525 -754 -43 -203 -202 -388 -400 -466
-66 -26 -99 -33 -182 -37 -133 -6 -205 8 -321 64 -180 87 -312 262 -348 464
-36 204 30 405 186 561 104 104 205 154 339 168 110 12 109 12 201 0z"/>
<path d="M1189 5558 c-213 -152 -285 -213 -470 -397 -182 -183 -260 -276 -381
-456 -396 -587 -446 -1323 -133 -1960 120 -243 255 -425 495 -665 233 -234
454 -405 755 -585 553 -332 1440 -624 2230 -736 83 -11 151 -22 153 -24 2 -1
8 -157 13 -346 6 -189 14 -352 17 -362 6 -13 139 115 627 603 l620 620 -633
633 -632 632 0 -351 c0 -236 -4 -362 -11 -384 -14 -38 6 -39 -274 16 -521 102
-959 245 -1350 441 -362 181 -601 347 -820 568 -263 265 -395 536 -395 811 0
230 79 425 272 674 l82 105 -3 565 c-2 311 -6 596 -10 633 l-6 69 -146 -104z"/>
<path d="M8507 5513 c-4 -58 -7 -344 -7 -636 l0 -530 79 -116 c222 -328 277
-591 185 -884 -146 -461 -675 -914 -1441 -1233 -326 -136 -627 -224 -1071
-314 -476 -97 -524 -113 -611 -205 -150 -158 -186 -432 -79 -598 42 -66 158
-169 233 -207 60 -30 67 -32 181 -31 286 0 864 122 1360 287 732 243 1316 583
1769 1030 454 447 669 901 692 1459 19 480 -121 908 -438 1332 -100 134 -385
418 -549 548 -132 104 -274 205 -289 205 -5 0 -11 -48 -14 -107z"/>
</g>
</svg>
