<?xml version="1.0" standalone="no"?>
<!DOCTYPE svg PUBLIC "-//W3C//DTD SVG 20010904//EN"
 "http://www.w3.org/TR/2001/REC-SVG-20010904/DTD/svg10.dtd">
<svg version="1.0" xmlns="http://www.w3.org/2000/svg"
 width="1000.000000pt" height="860.000000pt" viewBox="0 0 1000.000000 860.000000"
 preserveAspectRatio="xMidYMid meet">

<g transform="translate(0.000000,860.000000) scale(0.100000,-0.100000)"
fill="#000000" stroke="none">
<path d="M2255 8280 c-137 -15 -337 -76 -480 -148 -103 -51 -233 -149 -341
-257 -237 -237 -378 -525 -414 -850 -8 -71 -10 -863 -8 -2775 l3 -2675 23
-100 c95 -411 322 -734 673 -954 130 -81 303 -149 479 -187 82 -18 188 -19
2815 -19 2639 0 2733 1 2820 19 287 60 530 191 735 396 204 204 336 447 402
741 l23 104 0 2740 0 2740 -23 104 c-65 288 -189 517 -387 716 -210 210 -463
340 -764 394 -114 21 -133 21 -2800 20 -1477 -1 -2718 -5 -2756 -9z m535
-1205 l0 -1016 25 -24 c23 -24 29 -25 153 -25 116 0 132 2 156 21 l26 20 0
1020 0 1019 2254 0 c2185 0 2257 -1 2368 -19 499 -86 876 -445 991 -946 19
-85 21 -127 24 -707 l4 -618 -1161 0 -1161 0 -87 76 c-319 279 -719 457 -1133
504 -51 6 -166 11 -254 11 -472 0 -913 -156 -1290 -457 l-100 -80 -1195 1
-1195 1 0 579 c0 524 2 588 18 660 28 124 55 202 107 308 65 132 145 239 259
350 l96 92 5 -898 c5 -875 6 -899 24 -913 15 -10 54 -14 157 -14 120 0 140 2
160 19 l24 19 5 989 5 988 60 17 c33 9 70 17 83 17 l22 1 0 -995 c0 -1077 -2
-1044 52 -1059 39 -10 246 -7 271 5 14 6 30 22 36 36 8 17 11 314 11 1028 l0
1005 90 0 90 0 0 -1015z m2420 -895 c343 -36 706 -186 975 -403 77 -62 165
-150 165 -164 0 -7 7 -13 15 -13 35 0 219 -251 308 -421 142 -269 208 -546
210 -874 2 -370 -107 -721 -323 -1045 -151 -226 -401 -454 -648 -591 -480
-267 -1085 -303 -1602 -95 -424 170 -767 486 -973 896 -191 378 -248 773 -172
1185 33 178 81 321 164 490 87 177 193 326 335 473 274 283 605 463 985 537
69 13 142 26 161 28 75 8 310 6 400 -3z m-1824 -562 c-14 -18 -63 -87 -107
-153 -263 -390 -382 -860 -340 -1339 35 -403 198 -804 458 -1126 79 -97 246
-259 348 -337 254 -192 548 -325 858 -388 151 -30 402 -46 552 -35 520 39 998
264 1354 636 533 557 715 1358 475 2091 -47 144 -177 407 -256 518 -35 50 -67
96 -72 103 -6 9 218 12 1063 12 l1071 0 0 -1959 c0 -1894 -1 -1963 -19 -2073
-26 -148 -59 -252 -120 -371 -175 -343 -463 -567 -856 -664 -65 -16 -250 -17
-2705 -21 -1873 -2 -2667 0 -2745 8 -301 30 -559 154 -772 372 -168 172 -276
373 -340 633 -16 65 -17 223 -20 2098 l-4 2027 1102 0 1102 0 -27 -32z"/>
<path d="M6965 7706 c-89 -28 -162 -90 -206 -176 l-24 -45 -3 -515 c-2 -455
-1 -521 14 -565 22 -68 74 -137 132 -174 91 -58 109 -60 651 -56 l492 4 52 24
c73 33 118 76 158 149 l34 63 0 535 0 535 -27 52 c-36 68 -90 120 -158 152
l-55 26 -510 2 c-392 2 -519 -1 -550 -11z m1048 -210 c58 -39 57 -33 57 -549
l0 -474 -23 -34 c-12 -18 -34 -39 -47 -46 -19 -10 -140 -13 -500 -13 -459 0
-476 1 -508 20 -62 38 -62 41 -62 552 0 518 -1 511 71 550 32 17 63 18 509 16
447 -3 477 -4 503 -22z"/>
<path d="M4780 5441 c-333 -74 -597 -264 -765 -551 -156 -267 -196 -598 -109
-899 103 -355 384 -647 737 -766 277 -93 591 -75 854 50 317 150 536 418 630
773 23 84 26 117 26 252 1 164 -9 234 -50 365 -57 182 -156 338 -308 483 -150
143 -303 228 -515 284 -112 30 -383 35 -500 9z"/>
</g>
</svg>
